Coordinates
version=1
nRows=17
nColumns=24
inDegrees=yes

Units are S.I. units (second, meters, Newtons, ...)
Angles are in degrees.

endheader
time	pelvis_tilt	pelvis_list	pelvis_rotation	pelvis_tx	pelvis_ty	pelvis_tz	hip_flexion_r	hip_adduction_r	hip_rotation_r	knee_angle_r	ankle_angle_r	subtalar_angle_r	mtp_angle_r	hip_flexion_l	hip_adduction_l	hip_rotation_l	knee_angle_l	ankle_angle_l	subtalar_angle_l	mtp_angle_l	lumbar_extension	lumbar_bending	lumbar_rotation
      1.20450000	     -1.73644074	     -1.26606020	     -7.17702111	      0.08059488	      0.95118654	      0.35593412	    -17.69240626	      2.90535810	     -0.99094836	     -9.94882434	     15.98088966	      6.57510678	      7.69169632	     30.23867037	     -2.32512914	     -8.47326038	     -2.85967631	      6.33667137	     -4.15731948	      2.71138431	      2.16948012	      5.02843213	     12.36513895
      1.20866667	     -1.83437185	     -1.11294292	     -7.27375513	      0.08677948	      0.95033896	      0.35577306	    -17.79944763	      2.66332847	     -0.98085169	    -10.21584670	     15.80175539	      6.50330290	      7.70798511	     30.41886562	     -2.20399421	     -8.44056315	     -3.42069983	      6.12814377	     -4.45394481	      2.71057289	      2.33791083	      4.83403137	     12.45306220
      1.21283333	     -1.93665658	     -0.96265155	     -7.34822458	      0.09299060	      0.94951259	      0.35556475	    -17.89140354	      2.42869532	     -1.00066448	    -10.50276107	     15.57331821	      6.44769344	      7.74479448	     30.60481253	     -2.06888617	     -8.31785267	     -4.01175561	      5.85259971	     -4.89772155	      2.71619509	      2.51948344	      4.65179248	     12.56027241
      1.21700000	     -2.04628358	     -0.82006325	     -7.40134039	      0.09922607	      0.94870600	      0.35530415	    -17.97444563	      2.20736463	     -1.02610200	    -10.78944098	     15.37350921	      6.44818525	      7.85075313	     30.79322915	     -1.92077879	     -8.08483972	     -4.61121398	      5.44439658	     -5.56930013	      2.73963907	      2.71395684	      4.50295773	     12.68419092
      1.22116667	     -2.14494270	     -0.64433517	     -7.45450988	      0.10552588	      0.94795574	      0.35503888	    -18.05083917	      1.94735785	     -1.06891922	    -11.10603746	     15.10908465	      6.40986903	      7.98105460	     30.97781051	     -1.74213973	     -7.92378150	     -5.25411629	      5.04308659	     -6.12670997	      2.77291368	      2.89558831	      4.29874585	     12.76791385
      1.22533333	     -2.22070891	     -0.45378053	     -7.51160018	      0.11185754	      0.94727454	      0.35479187	    -18.12587334	      1.66647304	     -1.12428550	    -11.47164604	     14.80484929	      6.29942358	      8.05579007	     31.15502942	     -1.55685158	     -7.85159351	     -5.95473332	      4.68472827	     -6.53098463	      2.79094432	      3.06288907	      4.04770951	     12.82594934
      1.22950000	     -2.36361487	     -0.28878375	     -7.53864765	      0.11819429	      0.94654531	      0.35445923	    -18.13573585	      1.43135012	     -1.14095060	    -11.81770578	     14.51409844	      6.27137969	      8.25853952	     31.39029907	     -1.36694140	     -7.57743500	     -6.63019755	      4.12242973	     -7.31440563	      2.84298839	      3.30885913	      3.87921877	     12.93604610
      1.23366667	     -2.45932276	     -0.09760551	     -7.57035435	      0.12455588	      0.94592181	      0.35410997	    -18.15001898	      1.15242339	     -1.21374262	    -12.24970470	     14.18582063	      6.19415443	      8.59152471	     31.57322212	     -1.14647729	     -7.36134704	     -7.31348140	      3.57706999	     -8.04049538	      2.93353570	      3.48483748	      3.66254807	     13.00912092
      1.23783333	     -2.58635414	      0.10067190	     -7.58610472	      0.13097052	      0.94530249	      0.35376024	    -18.13394917	      0.88053570	     -1.25380784	    -12.66853711	     13.79990328	      6.09920581	      8.96851441	     31.80417430	     -0.91978524	     -7.17632991	     -8.03623604	      3.00016704	     -8.67655689	      3.03309117	      3.72308105	      3.42907034	     13.08503120
      1.24200000	     -2.68104532	      0.34090383	     -7.58779318	      0.13745046	      0.94475530	      0.35335818	    -18.11781234	      0.54784424	     -1.40827863	    -13.13548909	     13.31773810	      6.06502470	     13.38816612	     32.00380360	     -0.64318102	     -7.06178222	     -8.76692904	      2.40499999	     -9.23216313	      4.23406655	      3.93152136	      3.14208484	     13.11992903
      1.24616667	     -2.81598779	      0.53883059	     -7.58207474	      0.14391936	      0.94423259	      0.35298605	    -18.07448739	      0.29123602	     -1.38449801	    -13.57817899	     12.83605969	      5.84079151	     13.42826072	     32.25662948	     -0.41042137	     -6.91829079	     -9.53461787	      1.81922308	     -9.76515892	      4.22799207	      4.18956378	      2.90750142	     13.20241867
      1.25033333	     -2.94554499	      0.75346963	     -7.56615865	      0.15040079	      0.94376069	      0.35256330	    -17.99203724	      0.01051974	     -1.41016289	    -14.10242056	     12.35972419	      5.65827915	     13.52075166	     32.49455013	     -0.14727945	     -6.74771156	    -10.28464425	      1.20585157	    -10.35572287	      4.23142614	      4.43341842	      2.65579728	     13.26295298
      1.25450000	     -3.06361305	      0.97857524	     -7.54489673	      0.15687980	      0.94335134	      0.35209485	    -17.88140985	     -0.28867172	     -1.46204785	    -14.69640784	     11.86621802	      5.49202758	     13.72158087	     32.71222547	      0.13936529	     -6.54778702	    -11.02024462	      0.58628971	    -10.99116818	      4.25227908	      4.64675463	      2.40866658	     13.31987985
      1.25866667	     -3.19274121	      1.21221388	     -7.50307988	      0.16342601	      0.94298025	      0.35163719	    -17.76485195	     -0.58104639	     -1.48179360	    -15.26797144	     11.28775421	      5.32867743	     13.90892387	     32.95698442	      0.42989864	     -6.42604887	    -11.79769512	      0.00130777	    -11.46840213	      4.27080270	      4.91547335	      2.12556833	     13.36879997
      1.26283333	     -3.31476733	      1.44976037	     -7.45369035	      0.16995657	      0.94267175	      0.35113744	    -17.60906178	     -0.88217516	     -1.52193506	    -15.92126329	     10.68801970	      5.15164409	     14.15129088	     33.18572667	      0.73602699	     -6.27787030	    -12.56044061	     -0.56958808	    -11.97355773	      4.29502569	      5.15739539	      1.84557578	     13.41547553
      1.26700000	     -3.43208020	      1.69249355	     -7.39314789	      0.17650367	      0.94241893	      0.35060362	    -17.42961839	     -1.18899800	     -1.56448301	    -16.62032995	     10.04344429	      4.98542382	     14.46752573	     33.40505034	      1.05613039	     -6.12565819	    -13.32150873	     -1.11317311	    -12.46134062	      4.32521886	      5.39286104	      1.56380539	     13.45824872
      1.27116667	     -3.46793930	      1.98738816	     -7.29987045	      0.18311224	      0.94229402	      0.34997680	    -17.29822698	     -1.57856313	     -1.78937096	    -17.37322422	      9.24232007	      4.96153378	     19.29725130	     33.51848099	      1.46129625	     -5.96386042	    -14.04190609	     -1.59179724	    -12.90474047	      4.82018755	      5.53222564	      1.20655195	     13.48295677
